# xmcd
#
# Track frame offsets:
#	150
#	15209
#	29924
#	48370
#	63744
#	84170
#	94483
#	104123
#	120635
#	132924
#	149428
#	160731
#	173117
#
# Disc length: 2530 seconds
# Revision: 0
# Processed by: cddbd v1.5.2PL0 Copyright (c) Steve Scherf et al.
# Submitted via: dBpowerAMP V12.0
#
DISCID=b409e00d
DTITLE=Duke Garwood - Dreamboatsafari
DYEAR=2011
DGENRE=Blues
TTITLE0=Jesus Got A Gun
TTITLE1=Gods In My Shoes
TTITLE2=Panther
TTITLE3=Gold Watch
TTITLE4=Space Trucker Lady
TTITLE5=Summer Gold
TTITLE6=Wine Blood
TTITLE7=Gengis
TTITLE8=Tapestry Of Mars
TTITLE9=Flames Of Gold
TTITLE10=Rank Panache
TTITLE11=Tara Bulbous
TTITLE12=Larry
EXTD=
EXTT0=
EXTT1=
EXTT2=
EXTT3=
EXTT4=
EXTT5=
EXTT6=
EXTT7=
EXTT8=
EXTT9=
EXTT10=
EXTT11=
EXTT12=
PLAYORDER=
